<?xml version="1.0" encoding="UTF-8"?>
<svg width="204px" height="204px" viewBox="0 0 204 204" version="1.1" xmlns="http://www.w3.org/2000/svg" xmlns:xlink="http://www.w3.org/1999/xlink">
    <title>Group 4</title>
    <defs>
        <circle id="path-1" cx="92" cy="92" r="92"></circle>
        <filter x="-8.2%" y="-8.2%" width="116.3%" height="116.3%" filterUnits="objectBoundingBox" id="filter-2">
            <feOffset dx="0" dy="0" in="SourceAlpha" result="shadowOffsetOuter1"></feOffset>
            <feGaussianBlur stdDeviation="5" in="shadowOffsetOuter1" result="shadowBlurOuter1"></feGaussianBlur>
            <feColorMatrix values="0 0 0 0 0   0 0 0 0 0   0 0 0 0 0  0 0 0 0.1 0" type="matrix" in="shadowBlurOuter1"></feColorMatrix>
        </filter>
        <polygon id="path-3" points="2.27056374e-15 0 103 0 103 106 2.27056374e-15 106"></polygon>
    </defs>
    <g id="2-Buttons" stroke="none" stroke-width="1" fill="none" fill-rule="evenodd">
        <g id="Group-4" transform="translate(10.000000, 10.000000)">
            <g id="Oval">
                <use fill="black" fill-opacity="1" filter="url(#filter-2)" xlink:href="#path-1"></use>
                <use fill="#FFFFFF" fill-rule="evenodd" xlink:href="#path-1"></use>
            </g>
            <g id="Group-32" transform="translate(40.000000, 24.000000)">
                <path d="M68.0309182,111.992515 C68.0309182,111.992515 73.616681,110.311955 78.8734664,102.627463 C84.1302518,94.9463585 77.9859127,87.4990416 77.9859127,87.4990416 C83.3317962,62.0467012 63.6616865,39 41.5585146,39 C19.4621963,39 7.07756628,59.6478385 4.89123702,69.4940181 C2.70490777,79.3368095 4.81927321,99.3476618 8.21870679,111.355528 C11.6181404,123.356619 25.774451,134.083737 31.1203344,135.764296 C36.4593642,137.444855 47.1442774,129.760362 55.6462882,124.718685 C64.1448721,119.677007 68.0309182,111.992515 68.0309182,111.992515" id="Fill-1" fill="#FFC280"></path>
                <path d="M53.7682745,95.5680871 C55.0142784,94.9216343 51.0735048,89.2613247 45.8311313,90.0809345 C40.5887578,90.8966963 39.921606,96.8302091 40.0066352,97.4420305 C40.0916643,98.0538518 41.4292381,96.9302554 41.4292381,96.9302554 C41.0793105,98.330903 41.9851979,97.9538056 41.9851979,97.9538056 C44.4575836,95.8412903 53.7682745,95.5680871 53.7682745,95.5680871" id="Fill-3" fill="#20180F"></path>
                <path d="M12.1505965,94.393807 C8.33461003,93.519972 9.75822646,89.431027 15.1436633,90.0668172 C20.5325723,90.708634 23.0846652,95.0838353 22.9978593,95.5659511 C22.9075812,96.0450538 21.5360483,95.1651923 21.5360483,95.1651923 C21.8971607,96.2589927 20.9631295,95.9636967 20.9631295,95.9636967 C18.4249255,94.3124499 12.1505965,94.393807 12.1505965,94.393807" id="Fill-5" fill="#20180F"></path>
                <path d="M27.6532972,112.723866 C27.6532972,112.723866 23.4379289,111.391288 21.7715583,110.522499 C20.1051876,109.656977 19.4130029,109.826815 20.5812935,111.332498 C21.7495841,112.838181 26.873216,114.458178 27.6532972,113.880074 C28.4333784,113.30197 27.6532972,112.723866 27.6532972,112.723866" id="Fill-7" fill="#20180F"></path>
                <path d="M38.4454148,117.523523 C40.2650461,118.040461 37.2699596,120.674538 34.3379625,121.66561 C31.4026449,122.659974 27.6803699,121.198061 27.3848459,120.381497 C27.0926423,119.564933 27.2088596,119.6242 25.60174,118.573861 C23.9946204,117.523523 25.6781114,117.58279 29.7988458,117.523523 C33.9162596,117.464256 33.677184,117 36.2107217,117 C38.7409389,117 38.4454148,117.523523 38.4454148,117.523523" id="Fill-9" fill="#EE4E2F"></path>
                <path d="M55.5740768,81.4150551 C56.035373,81.5544231 56.1891384,81.5013305 55.694415,81.1794568 C48.4507281,76.4442625 39.9401482,80.7148967 40.0003172,81.9625723 C40.0604863,83.2932051 40.966365,84 40.966365,84 C46.0205664,80.8642196 51.6229749,81.4913757 53.6787513,81.8464323 C55.731185,82.1948523 55.1194661,81.2756871 55.5740768,81.4150551" id="Fill-11" fill="#20180F"></path>
                <path d="M12,82.1766062 C12,83.3011265 13.1447919,82.4969241 17.0668282,82.4560324 C20.9888645,82.4151408 24.7483473,85.5569824 24.9074423,84.912939 C25.0734544,84.2688955 25.5645736,81.9346639 20.3317332,80.4046347 C15.1023515,78.8746056 12,82.1766062 12,82.1766062" id="Fill-13" fill="#20180F"></path>
                <path d="M53.7680941,95.5680871 C55.0143348,94.9216343 51.0760834,89.2613247 45.8294428,90.0809345 C40.5860732,90.8966963 39.9187948,96.8302091 40.007111,97.4420305 C40.0921563,98.0538518 41.4267133,96.9302554 41.4267133,96.9302554 C41.0767192,98.330903 41.9827787,97.9538056 41.9827787,97.9538056 C44.4556342,95.8412903 53.7680941,95.5680871 53.7680941,95.5680871" id="Fill-15" fill="#000000"></path>
                <path d="M12.1521164,94.393807 C8.33544392,93.519972 9.7558434,89.431027 15.1422483,90.0668172 C20.5355988,90.708634 23.0846776,95.0838353 22.9978561,95.5659511 C22.9110346,96.0450538 21.5392552,95.1651923 21.5392552,95.1651923 C21.8969597,96.2589927 20.9627605,95.9636967 20.9627605,95.9636967 C18.4241004,94.3124499 12.1521164,94.393807 12.1521164,94.393807" id="Fill-17" fill="#000000"></path>
                <path d="M27.6532909,112.723866 C27.6532909,112.723866 23.4378455,111.391288 21.7751069,110.522499 C20.1050434,109.656977 19.412846,109.826815 20.581158,111.332498 C21.7494699,112.838181 26.8768579,114.458178 27.6532909,113.880074 C28.4333864,113.30197 27.6532909,112.723866 27.6532909,112.723866" id="Fill-19" fill="#000000"></path>
                <path d="M37.4453411,117.523523 C39.2652144,118.040461 36.2697295,120.674538 33.3373425,121.66561 C30.4049555,122.659974 26.6788646,121.198061 26.3866222,120.381497 C26.0910588,119.564933 26.2072916,119.6242 24.6032792,118.573861 C22.9926249,117.523523 24.6796607,117.58279 28.7976221,117.523523 C32.9155835,117.464256 32.679797,117 35.2103507,117 C37.7409045,117 37.4453411,117.523523 37.4453411,117.523523" id="Fill-21" fill="#EE4E2F"></path>
                <path d="M55.5740759,81.4150551 C56.0353731,81.5544231 56.1891388,81.5013305 55.6944143,81.1794568 C48.4540547,76.4442625 39.9434566,80.7148967 40.0002831,81.9625723 C40.0604522,83.2932051 40.9663329,84 40.9663329,84 C46.0205451,80.8642196 51.6229656,81.4913757 53.6787463,81.8464323 C55.7311844,82.1948523 55.1194642,81.2756871 55.5740759,81.4150551" id="Fill-23" fill="#000000"></path>
                <path d="M12,82.1766062 C12,83.3011265 13.1413698,82.4969241 17.0635314,82.4560324 C20.985693,82.4151408 24.7452959,85.5569824 24.9078547,84.912939 C25.0738721,84.2688955 25.5615483,81.9346639 20.3319994,80.4046347 C15.1024506,78.8746056 12,82.1766062 12,82.1766062" id="Fill-25" fill="#000000"></path>
                <g id="Group-29">
                    <mask id="mask-4" fill="white">
                        <use xlink:href="#path-3"></use>
                    </mask>
                    <g id="Clip-28"></g>
                    <path d="M5.79440071,57.8451477 C1.35644257,61.3029407 -0.112651105,63.9878152 0.00664884472,69.6491037 C0.180485915,77.7444073 4.16169568,79.364824 4.16169568,79.364824 C4.16169568,79.364824 6.00573205,59.5570942 23.6757589,56.6010202 C39.7335322,53.9127556 47.2119348,60.7503718 51.8203214,64.6624238 C66.2931097,76.9443689 62.976571,97.0538081 64.2581934,97.0538081 C65.5432243,97.0538081 68.1746403,91.694229 70.3936194,89.1008843 C72.3092357,86.8600988 77.3471022,85.5481715 79.4058785,90.3280618 C83.3291425,99.4539233 76.1063827,106 76.1063827,106 C78.9354958,103.738875 81.3555805,101.528599 83.4109482,99.3691734 C84.8936762,97.8131666 82.6746971,92.5925772 83.7995252,91.0975902 C85.4015531,88.9618946 87.9034435,90.4907815 89.3623114,87.5923373 C91.1722621,83.9921646 87.4364694,80.2936821 88.7215003,77.429138 C95.1466547,63.130147 85.0334275,57.7773478 81.9759402,56.4823704 C81.7271146,56.3772806 81.7441575,56.0281114 81.9998002,55.9501415 C85.7628615,54.8314438 91.3767763,48.9023458 92.3686702,46.0513616 C93.4628211,42.915618 100.583324,41.9867598 101.397972,39.7968243 C103.252234,34.8033644 98.2961734,28.5488271 98.2961734,28.5488271 C108.688903,22.2942898 99.3903244,10.9886627 94.0116009,10.6869533 C87.5353179,10.3208341 83.4041311,14.0362665 82.5213114,11.9548108 C77.9640533,1.16107264 62.6732083,-6.93762093 53.9813548,8.77838719 C52.9792352,10.5954235 45.2554156,11.6802213 44.3180589,15.3990438 C43.3159393,19.3585557 39.0279582,24.5621952 41.0356059,27.4606393 C41.8298028,28.613237 45.0611271,29.2200457 45.1463414,30.3523034 C45.2485985,31.7422006 45.4462955,32.9151382 45.640584,33.8304364 C45.8041954,34.5728449 44.9179672,35.1694837 44.3385103,34.6779347 C35.9466109,27.596239 33.8878347,33.8643363 27.0229747,35.1050738 C23.556459,35.7322225 16.9506503,35.9220621 14.7691655,37.6950285 C11.5719269,40.2849833 14.8271112,41.9460799 13.6102517,43.1630875 C11.7116782,45.0614836 5.60011222,46.5225706 4.16169568,49.9803636 C1.92908233,55.3535027 7.72365133,56.3467707 5.79440071,57.8451477" id="Fill-27" fill="#110B05" mask="url(#mask-4)"></path>
                </g>
                <path d="M73.8826204,97.24828 C72.9811786,97.6997914 70.5510417,101.709077 70.727574,103.885159 C70.9003504,106.057846 71.3998994,107.144189 69.6721359,106.984633 C67.9443725,106.825076 67.2682911,102.547599 69.0448827,99.5363907 C70.8252302,96.5251826 72.177393,94.101279 74.6601139,95.3234153 C77.1390789,96.5455516 75.4864356,99.1527757 75.1333709,99.2410411 C74.7840622,99.3327013 74.4835816,98.7420021 74.5098736,97.6556587 C74.5324097,96.5693153 73.8826204,97.24828 73.8826204,97.24828" id="Fill-30" fill="#000000"></path>
            </g>
        </g>
    </g>
</svg>