<svg id="Ebene_1" data-name="Ebene 1" xmlns="http://www.w3.org/2000/svg" viewBox="0 0 57.59 213.63"><defs><style>.cls-1{fill:#ffc280;}.cls-1,.cls-10,.cls-11,.cls-12,.cls-2,.cls-3,.cls-4,.cls-5,.cls-6,.cls-7,.cls-8,.cls-9{fill-rule:evenodd;}.cls-2{fill:#daedeb;}.cls-3{fill:#28445c;}.cls-4{fill:#121f2d;}.cls-5{fill:#38628b;}.cls-7{fill:#fab120;}.cls-8{fill:#fefdfa;}.cls-9{fill:#d19219;}.cls-10{fill:#20180f;}.cls-11{fill:#ee4e2f;}.cls-12{fill:#110b05;}</style></defs><g id="Female_Character_Standing_Lower_Body" data-name="Female Character Standing/Lower Body"><g id="Female_Character_Standing_Lower_Body_Short_Skirt_2" data-name="Female Character Standing/Lower Body/Short Skirt 2"><path id="Fill_245" data-name="Fill 245" class="cls-1" d="M28.81,164.74c.38-7.75-3.59-20.88-3.59-20.88l2.93-8.32c1.14,6.52,6.75,18.05,6.75,18.05a59.09,59.09,0,0,0,0,7.46c.29,2.55-1.23,24.57-1.23,24.57-2.93-1.51-5.19-13.13-4.82-20.88M4.72,145.56c2.08,4.15,12.66,25.7,15.12,29.38s5.57,12.85,5.57,12.85-2,8.08-1.7,10.44c0,0-4.86,1.85-4.53,3.78,0,0,9.16-1,9.11-1.51s4.12-8.5,5.25-9.26a33.13,33.13,0,0,1-1.42,5.06c-.71,1.56-1.84,6.14-3,8.78a8.92,8.92,0,0,1-4.49,4.26c-1.23.71-1.28,2.45.09,2.31s6.81-.94,7.66-1.18,6.66-4.58,7.75-5.34-.71-4.58-.43-7a65.81,65.81,0,0,1,6.69-21.16c5-9.57,5.45-28.77,5.59-31.82s5.88-28.41,2.93-38.29C51.54,95.57,43.74,88.86,41.38,86c0,0,.57-7.47-8-7.47A14.54,14.54,0,0,0,21,85.37S6.7,107.29,3,138.94c0,0-.33,2.46,1.75,6.62"/><path id="Fill_249" data-name="Fill 249" class="cls-2" d="M40.2,199c.29,0,.62,2.47,1.07,3.91a2.21,2.21,0,0,1-1.2,2.73c-.83.5-5.65,4.33-7.14,5.11s-6,1.4-7.7,1.52a2.45,2.45,0,0,1-2.57-1.3,4.86,4.86,0,0,1,1-1.62c.33-.25,3.33-1.54,3.33-1.54,2.42,2.32,7.11,1.33,7.11,1.33a34.65,34.65,0,0,1,4.64-4A34.26,34.26,0,0,1,40.2,199"/><path id="Fill_251" data-name="Fill 251" class="cls-2" d="M33.29,192.39c-3.76,5.5-3.76,7.6-4.32,8.28s-4.5,1.24-6.52,1.45a17.21,17.21,0,0,1-3.62,0c.32-2.91,3.4-3.12,3.4-3.12a30.09,30.09,0,0,0,5.67.32c1-3.44,5.64-8.08,5.64-8.08Z"/></g></g><g id="Group_9" data-name="Group 9"><path id="Fill_7" data-name="Fill 7" class="cls-3" d="M42.07,83.16c-1.82-8.33-11.3-6-11.3-6C21.19,78.45,20.28,82.41,20,82.41s-.7.3-.68.48-.51,3.6-.51,3.6C9.38,95.94,0,132.79,2.71,142.33s17.72,37.23,17.72,37.23c6.05-.19,12.19-4.91,12.19-4.91s-3-8-2.8-14.93S26,142.05,26,142.05l2.11-5c.94,5.94,5.31,14.74,5.31,14.74-1,7.75,0,37.13,0,37.13,7.46,1.52,11-.75,11-.75,7.47-23.81,10.11-36.29,9.54-41.51s4.29-20.67,3.5-34.92S42.41,86,42.41,86a4.27,4.27,0,0,0-.34-2.83"/></g><path id="Fill_10" data-name="Fill 10" class="cls-4" d="M41.45,86.68a23,23,0,0,1-5.32,2,25,25,0,0,1-5.66.75,19.76,19.76,0,0,1-5.68-.71,16.89,16.89,0,0,1-5.15-2.42c.43.19.87.38,1.29.58l.64.29.67.21,1.32.46,1.37.32a24.45,24.45,0,0,0,5.53.52A33.47,33.47,0,0,0,36,88.12c.92-.17,1.84-.38,2.74-.63a28,28,0,0,0,2.7-.81"/><path id="Fill_12" data-name="Fill 12" class="cls-4" d="M34.32,84.26a8.94,8.94,0,0,1,.37,2.42c0,.4,0,.8,0,1.19a8,8,0,0,0,0,1.2,2.12,2.12,0,0,1-.56-1.14,6.46,6.46,0,0,1-.15-1.23,6.24,6.24,0,0,1,.38-2.44"/><path id="Fill_14" data-name="Fill 14" class="cls-4" d="M32.48,84.26a8.54,8.54,0,0,1,.42,2.41c0,.4,0,.8,0,1.2a12,12,0,0,0,0,1.2,2.29,2.29,0,0,1-.57-1.14,6.64,6.64,0,0,1,.15-3.67"/><path id="Fill_16" data-name="Fill 16" class="cls-4" d="M23.08,83.18a7.78,7.78,0,0,1,.33,2.26c0,.37,0,.74,0,1.11s-.08.74-.1,1.14a2.54,2.54,0,0,1-.48-1.09,5.63,5.63,0,0,1-.13-1.15,5.32,5.32,0,0,1,.42-2.27"/><path id="Fill_18" data-name="Fill 18" class="cls-4" d="M22.13,81.91a11.18,11.18,0,0,1,0,2.77c0,.46-.11.91-.19,1.36s-.19.88-.22,1.36A3.14,3.14,0,0,1,21.37,86a9.32,9.32,0,0,1,0-1.4,8,8,0,0,1,.73-2.7"/><path id="Fill_20" data-name="Fill 20" class="cls-4" d="M32.15,89.07a35.5,35.5,0,0,0,2,4.71,29,29,0,0,0,2.62,4.35,22.13,22.13,0,0,0,3.41,3.69,14.1,14.1,0,0,0,4.36,2.36l-.48.36v-2.37l.16.3a34.26,34.26,0,0,1-3.35-2.75,25.31,25.31,0,0,1-2.93-3.19,18.37,18.37,0,0,1-2.28-3.68,11.19,11.19,0,0,1-1-4.17,14.74,14.74,0,0,0,3.68,7.52,32.68,32.68,0,0,0,3,3,32,32,0,0,0,3.31,2.65l.15.11v3.06l-.48-.16a14.33,14.33,0,0,1-4.57-2.54,20.21,20.21,0,0,1-3.46-3.88,29.3,29.3,0,0,1-4.12-9.4"/><path id="Fill_22" data-name="Fill 22" class="cls-4" d="M44.9,111.24a85.45,85.45,0,0,1,.81,8.59c.15,2.87.17,5.75.15,8.63s-.18,5.75-.43,8.62-.57,5.72-1,8.56c.14-2.87.34-5.73.45-8.6s.23-5.73.25-8.59,0-5.73,0-8.6-.1-5.73-.23-8.61"/><path id="Fill_24" data-name="Fill 24" class="cls-4" d="M44.41,151c0,2.44-.19,4.87-.38,7.3s-.47,4.85-.75,7.27-.67,4.82-1.11,7.22-1,4.78-1.61,7.13c.36-2.41.71-4.81,1-7.22s.66-4.81.94-7.23l.92-7.23c.3-2.41.6-4.82.95-7.24"/><path id="Fill_26" data-name="Fill 26" class="cls-4" d="M46.28,182.16a11.2,11.2,0,0,1-3.11.89,19.65,19.65,0,0,1-3.25.21A23.09,23.09,0,0,1,36.7,183a20,20,0,0,1-3.14-.79l3.21.21c1.06.06,2.11.13,3.17.14s2.11,0,3.17,0a28.57,28.57,0,0,0,3.17-.31"/><path id="Fill_28" data-name="Fill 28" class="cls-4" d="M31,169.1a25,25,0,0,1-5.88,3.07,14.84,14.84,0,0,1-6.55,1.06,26.07,26.07,0,0,0,3.2-.73c1-.3,2.07-.66,3.09-1,2.05-.74,4.07-1.59,6.14-2.37"/><path id="Fill_30" data-name="Fill 30" class="cls-4" d="M25,143a34.61,34.61,0,0,1-2.62,3.66c-.48.57-.94,1.15-1.43,1.71s-1,1.12-1.44,1.72a12.5,12.5,0,0,1,2.28-3.9A19,19,0,0,1,25,143"/><path id="Fill_32" data-name="Fill 32" class="cls-4" d="M24.76,140.72A35.18,35.18,0,0,1,22,144.08l-3,3.16a11.73,11.73,0,0,1,2.42-3.66,16.61,16.61,0,0,1,3.33-2.86"/><path id="Fill_34" data-name="Fill 34" class="cls-5" d="M25.46,86.3a1.12,1.12,0,1,1,1.11,1.23,1.17,1.17,0,0,1-1.11-1.23"/><path id="Fill_36" data-name="Fill 36" class="cls-4" d="M28.07,134.87c-.73-2.22-1.34-4.47-1.9-6.73s-1-4.55-1.46-6.84-.76-4.61-1-6.93a46.79,46.79,0,0,1-.2-7c.17,2.33.44,4.63.77,6.93s.7,4.59,1.13,6.87.86,4.56,1.29,6.84l1.34,6.86"/><g id="Female_Character_Upper_Body" data-name="Female Character/Upper Body"><g id="Female_Character_Upper_Body_Sweater_6" data-name="Female Character/Upper Body/Sweater 6"><g id="Group_112" data-name="Group 112"><path id="Fill_86" data-name="Fill 86" class="cls-1" d="M17,91.4a11.34,11.34,0,0,1,0-6.48c1-4,1.86-7,1.86-7l1.33,7S36.79,88,41.67,83.3l.4-5.26,3.86-7.59L45.2,87A113.8,113.8,0,0,0,32,94.08s-.05.39-2.05-.37-4.68-2.55-5.47-2.47a5.38,5.38,0,0,1-1.9-.06A32.6,32.6,0,0,0,17,91.4M13.18,60.73c-2.1,4.64-6.53,22.57-5.53,26.83s4.89,9.27,6.26,10.17a2,2,0,0,0,2.44-.07,15.25,15.25,0,0,0,2.5,1.92c.57.17.65-.08.5-.38s-2-2.67-1.69-2.87.39.25.39.25,2.12,3.38,2.82,3.09S20.29,97,20.29,97s1.8,2.58,2.18,2.54.26-.79.26-.79c.56.26.83,0,.83,0,.52-1-1-2.27-1-2.27s1.92,1.54,7,2.75,22.07-6.74,23.2-7.5,4.18-19.37,2.54-29S40.73,47,37.9,45s-3.18-8.93-3.18-8.93-1.17-3.38-4.32-1.23S28.54,45.1,28.54,45.1c-5.45,4-13.25,11-15.36,15.63"/><path id="Fill_88" data-name="Fill 88" class="cls-6" d="M22.3,92.48c-1.29.62-2.61,1.19-3.93,1.75-.66.3-1.34.52-2,.78-.32.14-.65.27-1,.42l-.45.24c-.12.06-.28.25-.24.18s0,0,0,0l.17.1a1.39,1.39,0,0,0,.45.14,3.77,3.77,0,0,0,1,0,10.53,10.53,0,0,0,2-.46,5.09,5.09,0,0,1,2.19-.19,3.33,3.33,0,0,1,1.91,1,4.06,4.06,0,0,0-4-.43,8.3,8.3,0,0,1-2.11.55,4.36,4.36,0,0,1-1.14,0,2.19,2.19,0,0,1-.58-.16,1.47,1.47,0,0,1-.28-.18.53.53,0,0,1-.23-.42.6.6,0,0,1,.24-.39,1.84,1.84,0,0,1,.25-.17c.17-.1.33-.18.5-.26.34-.15.67-.28,1-.41l2-.72c1.34-.48,2.69-1,4.06-1.39"/><path id="Fill_90" data-name="Fill 90" class="cls-6" d="M22.73,98.7c-.32-.53-.58-1.09-.88-1.62-.14-.27-.3-.53-.46-.79a2,2,0,0,0-.6-.66,1.53,1.53,0,0,1,.76.55,7,7,0,0,1,.52.78,7.34,7.34,0,0,1,.66,1.74"/><path id="Fill_92" data-name="Fill 92" class="cls-6" d="M20.29,97a5,5,0,0,0-.94-1.31.71.71,0,0,1,.42.14,1.17,1.17,0,0,1,.3.33,1.47,1.47,0,0,1,.22.84"/><path id="Fill_94" data-name="Fill 94" class="cls-6" d="M23.09,91.51a5.78,5.78,0,0,0-2.54.36,21.49,21.49,0,0,0-2.38,1c-.78.37-1.55.78-2.32,1.19-.38.19-.79.42-1.18.58-.18.07-.24.21-.07.36a1.51,1.51,0,0,0,.57.27,1.26,1.26,0,0,1-.65-.17.35.35,0,0,1-.2-.33.45.45,0,0,1,.23-.34c.4-.22.73-.46,1.11-.7A18,18,0,0,1,18,92.43a12.61,12.61,0,0,1,2.49-.93,4.56,4.56,0,0,1,2.64,0"/><path id="Fill_96" data-name="Fill 96" class="cls-6" d="M18.31,91.4c-.75.25-1.51.43-2.23.7a2.16,2.16,0,0,0-.95.51,3.58,3.58,0,0,0-.3,1.1A2.44,2.44,0,0,1,15,92.52a2.13,2.13,0,0,1,1-.66,9.27,9.27,0,0,1,2.32-.46"/><path id="Fill_98" data-name="Fill 98" class="cls-6" d="M14.83,93a14.41,14.41,0,0,1-1.28,1.53,17.06,17.06,0,0,1-1.44,1.37,14.45,14.45,0,0,1,1.26-1.55A15.56,15.56,0,0,1,14.83,93"/><path id="Fill_100" data-name="Fill 100" class="cls-7" d="M41.67,47.35c9.36,4.13,12.95,9.4,14.59,18.58s-2,23.86-2.84,25.47-1.29.63-1.29.63c-1.63-2.23-7.32-4.87-7.32-4.87s.61-14.22.4-14.22a34.2,34.2,0,0,0-2.71,5.11c-.17.61-.3,5.25-.3,5.25-7.06,6-22.38,1.63-22.38,1.63l-1-6A11.76,11.76,0,0,0,18,82.32a9.66,9.66,0,0,1-1.24,3.73c-4.37-7.65-9.24-.55-9.24-.55C9.1,52.1,23.73,48.94,23.73,48.94c8.16,4.05,17.94-1.59,17.94-1.59"/><path id="Fill_102" data-name="Fill 102" class="cls-8" d="M34.28,66.83A60.09,60.09,0,0,1,28,66.5c-10.25-1.06-12.64-2-12.69-2A10.62,10.62,0,0,1,11.6,63a.25.25,0,0,1,.32-.39A10.39,10.39,0,0,0,15.44,64S17.91,65,28,66s16.84-.78,16.9-.8H45c7.62.89,10.46-2,10.49-2.07a.25.25,0,0,1,.36,0,.25.25,0,0,1,0,.35c-.12.13-3,3.14-10.87,2.23a45.28,45.28,0,0,1-10.75,1.12"/><path id="Fill_104" data-name="Fill 104" class="cls-8" d="M33.53,69.09c-2,0-4.09,0-6.37-.2-9.39-.6-11.64-1.13-12-1.25-.46.08-3.11.43-4.73-1.31a.24.24,0,0,1,0-.35.25.25,0,0,1,.35,0c1.56,1.67,4.31,1.16,4.34,1.15a.29.29,0,0,1,.13,0c.07,0,1.73.59,12,1.24A87.92,87.92,0,0,0,45,67.86h.08a16.53,16.53,0,0,0,11-2.13.24.24,0,0,1,.35,0,.25.25,0,0,1-.06.35c-.17.13-4.35,3.09-11.34,2.23a81.2,81.2,0,0,1-11.54.73"/><path id="Fill_106" data-name="Fill 106" class="cls-8" d="M30.84,72.37a60.11,60.11,0,0,1-15.11-1.66c-.56.18-3.87,1.09-6.18-1.33a.24.24,0,0,1,0-.35.25.25,0,0,1,.36,0c2.25,2.36,5.69,1.2,5.73,1.19a.22.22,0,0,1,.14,0c12,3.25,29.08.72,29.25.69h.07c8.9,1.17,11.36-1.19,11.4-1.23a.25.25,0,0,1,.36,0,.24.24,0,0,1,0,.35c-.1.11-2.58,2.6-11.79,1.39a106.76,106.76,0,0,1-14.23,1"/><path id="Fill_108" data-name="Fill 108" class="cls-9" d="M44.74,69.22c-.16-1.23-.32-2.46-.54-3.68a37,37,0,0,0-.77-3.62,18,18,0,0,0-1.28-3.48A10.65,10.65,0,0,1,44,61.75a20.82,20.82,0,0,1,.95,3.67,28.27,28.27,0,0,1,.27,7.52Z"/><path id="Fill_110" data-name="Fill 110" class="cls-9" d="M18.85,56.6a28.24,28.24,0,0,1-2.23,5.29,10.74,10.74,0,0,0-1.22,5.34,14.45,14.45,0,0,0,1.43,5.37c.71,1.77,1.41,3.55,2,5.36-.9-1.69-1.73-3.41-2.55-5.13a22.79,22.79,0,0,1-1.14-2.67,11,11,0,0,1-.51-2.9,10.34,10.34,0,0,1,1.46-5.65,51.62,51.62,0,0,0,2.74-5"/></g></g></g><g id="Female_Character_Head" data-name="Female Character/Head"><g id="Female_Character_Head_Afro_Bun_1" data-name="Female Character/Head/Afro Bun 1"><g id="Group_31" data-name="Group 31"><g id="Group_3" data-name="Group 3"><path id="Fill_1" data-name="Fill 1" class="cls-1" d="M36.36,35.34a6.73,6.73,0,0,0,3.17-2.76,3.89,3.89,0,0,0-.26-4.47C40.83,20.6,35.09,13.8,28.64,13.8s-10.06,6.09-10.7,9,0,8.81,1,12.35,5.12,6.71,6.68,7.21,4.68-1.77,7.16-3.26a10.23,10.23,0,0,0,3.61-3.76"/></g><path id="Fill_4" data-name="Fill 4" class="cls-10" d="M32.51,30.59c.39-.16-.82-1.64-2.42-1.42a2,2,0,0,0-1.78,1.91c0,.16.43-.13.43-.13-.11.36.17.26.17.26.76-.55,3.6-.62,3.6-.62"/><path id="Fill_6" data-name="Fill 6" class="cls-10" d="M20,30.19c-1.1-.29-.69-1.65.86-1.44a2.88,2.88,0,0,1,2.27,1.83c0,.15-.43-.14-.43-.14.11.37-.16.27-.16.27A5.47,5.47,0,0,0,20,30.19"/><path id="Fill_8" data-name="Fill 8" class="cls-10" d="M24.77,35.54a13.22,13.22,0,0,1-1.6-.68c-.46-.26-.65-.21-.33.25s1.72,1,1.93.78a.21.21,0,0,0,0-.35"/><path id="Fill_10-2" data-name="Fill 10" class="cls-11" d="M27.64,37c.55.16-.35,1-1.23,1.26a2.23,2.23,0,0,1-2.1-.39c-.09-.25,0-.23-.54-.55S23.8,37,25,37s1.17-.16,1.93-.16.67.16.67.16"/><path id="Fill_12-2" data-name="Fill 12" class="cls-10" d="M33,26.41c.14,0,.19,0,0-.07-2.17-1.43-4.71-.14-4.7.24a.86.86,0,0,0,.29.61,5.63,5.63,0,0,1,3.81-.65c.61.11.43-.17.56-.13"/><path id="Fill_14-2" data-name="Fill 14" class="cls-10" d="M20,26.55c0,.33.33.1,1.47.09s2.22.91,2.26.72S24,26.48,22.45,26a2.42,2.42,0,0,0-2.41.52"/><path id="Fill_16-2" data-name="Fill 16" class="cls-6" d="M32.32,30.59c.38-.16-.82-1.64-2.42-1.42a2,2,0,0,0-1.78,1.91c0,.16.43-.13.43-.13-.11.36.17.26.17.26.76-.55,3.6-.62,3.6-.62"/><path id="Fill_18-2" data-name="Fill 18" class="cls-6" d="M19.85,30.19c-1.1-.29-.69-1.65.86-1.44A2.86,2.86,0,0,1,23,30.58c0,.15-.42-.14-.42-.14.11.37-.16.27-.16.27a5.47,5.47,0,0,0-2.54-.52"/><path id="Fill_20-2" data-name="Fill 20" class="cls-6" d="M24.58,35.54a13.22,13.22,0,0,1-1.6-.68c-.46-.26-.65-.21-.33.25s1.72,1,1.93.78a.22.22,0,0,0,0-.35"/><path id="Fill_22-2" data-name="Fill 22" class="cls-11" d="M27.45,37c.55.16-.35,1-1.24,1.26a2.22,2.22,0,0,1-2.09-.39c-.09-.25-.05-.23-.54-.55s0-.3,1.27-.32,1.17-.16,1.93-.16.67.16.67.16"/><path id="Fill_24-2" data-name="Fill 24" class="cls-6" d="M32.77,26.41c.14,0,.19,0,0-.07-2.17-1.43-4.71-.14-4.7.24a.86.86,0,0,0,.29.61,5.61,5.61,0,0,1,3.8-.65c.62.11.44-.17.57-.13"/><path id="Fill_26-2" data-name="Fill 26" class="cls-6" d="M19.85,26.55c0,.33.33.1,1.46.09s2.23.91,2.27.72.19-.88-1.32-1.33a2.42,2.42,0,0,0-2.41.52"/><g id="Group_30" data-name="Group 30"><path id="Fill_28-2" data-name="Fill 28" class="cls-12" d="M18.16,19.34a3.62,3.62,0,0,0-1.7,3.48c.05,2.39,1.22,2.87,1.22,2.87s.54-5.85,5.72-6.72a8.88,8.88,0,0,1,8.26,2.38C35.9,25,34.93,30.9,35.31,30.9s1.15-1.58,1.8-2.34a1.54,1.54,0,0,1,2.64.36,4.2,4.2,0,0,1-1,4.62,22.34,22.34,0,0,0,2.15-1.95c.43-.46-.22-2,.11-2.44.47-.63,1.2-.18,1.63-1,.53-1.06-.56-2.15-.19-3,1.89-4.21-1.08-5.79-2-6.17a.08.08,0,0,1,0-.16,6.49,6.49,0,0,0,3-2.92c.33-.93,2.41-1.2,2.65-1.85.55-1.47-.91-3.31-.91-3.31,3.05-1.85.32-5.18-1.25-5.27-1.9-.11-3.12,1-3.37.37-1.34-3.18-5.83-5.57-8.38-.94-.29.54-2.56.86-2.83,2s-1.55,2.7-1,3.55c.24.34,1.19.52,1.21.86a7,7,0,0,0,.15,1,.25.25,0,0,1-.39.25c-2.46-2.09-3.06-.24-5.08.13-1,.18-2.95.24-3.59.76-.94.77,0,1.26-.34,1.62-.56.56-2.35,1-2.77,2-.66,1.58,1,1.88.48,2.32"/></g></g><path id="Fill_28-3" data-name="Fill 28" class="cls-6" d="M38.11,30.94a3.25,3.25,0,0,0-.84,1.95c0,.64.18,1-.28.91s-.64-1.3-.17-2.19.84-1.6,1.5-1.24a.73.73,0,0,1,.12,1.15c-.09,0-.17-.14-.16-.46s-.17-.12-.17-.12"/></g></g></svg>