<?xml version="1.0" encoding="utf-8"?>
<!-- Generator: Adobe Illustrator 26.2.0, SVG Export Plug-In . SVG Version: 6.00 Build 0)  -->
<svg version="1.1" id="Ebene_1" xmlns="http://www.w3.org/2000/svg" xmlns:xlink="http://www.w3.org/1999/xlink" x="0px" y="0px"
	 viewBox="0 0 57.6 213.6" style="enable-background:new 0 0 57.6 213.6;" xml:space="preserve">
<style type="text/css">
	.st0{fill-rule:evenodd;clip-rule:evenodd;fill:#FFC280;}
	.st1{fill-rule:evenodd;clip-rule:evenodd;fill:#20180F;}
	.st2{fill-rule:evenodd;clip-rule:evenodd;fill:#DAEDEB;}
	.st3{fill-rule:evenodd;clip-rule:evenodd;fill:#99D9F7;}
	.st4{fill-rule:evenodd;clip-rule:evenodd;fill:#5DB1E2;}
	.st5{fill-rule:evenodd;clip-rule:evenodd;}
	.st6{fill-rule:evenodd;clip-rule:evenodd;fill:#FAB120;}
	.st7{fill-rule:evenodd;clip-rule:evenodd;fill:#FEFDFA;}
	.st8{fill-rule:evenodd;clip-rule:evenodd;fill:#D19219;}
	.st9{fill-rule:evenodd;clip-rule:evenodd;fill:#EE4E2F;}
	.st10{fill-rule:evenodd;clip-rule:evenodd;fill:#110B05;}
</style>
<g id="Master_x2F_Female_Character_x2F_Standing">
	<g id="Female_Character_Standing_x2F_Lower_Body" transform="translate(114 118) scale(1 1)">
		<g id="Female_Character_Standing_x2F_Lower_Body_x2F_Short_Skirt_2">
			<path id="Fill_245" class="st0" d="M-85.2,46.7c0.4-7.7-3.6-20.9-3.6-20.9l2.9-8.3c1.1,6.5,6.7,18,6.7,18s-0.3,4.9,0,7.5
				c0.3,2.6-1.2,24.6-1.2,24.6C-83.3,66.1-85.6,54.5-85.2,46.7 M-109.3,27.6c2.1,4.2,12.7,25.7,15.1,29.4c2.5,3.7,5.6,12.9,5.6,12.9
				s-2,8.1-1.7,10.4c0,0-4.9,1.8-4.5,3.8c0,0,9.2-1,9.1-1.5c0-0.5,4.1-8.5,5.2-9.3c0,0-0.7,3.5-1.4,5.1c-0.7,1.6-1.8,6.1-3,8.8
				c-1.2,2.6-3.3,3.5-4.5,4.3c-1.2,0.7-1.3,2.5,0.1,2.3c1.4-0.1,6.8-0.9,7.7-1.2c0.9-0.2,6.7-4.6,7.7-5.3c1.1-0.8-0.7-4.6-0.4-7
				c0.3-2.5,1.7-11.6,6.7-21.2c5-9.6,5.5-28.8,5.6-31.8c0.1-3.1,5.9-28.4,2.9-38.3c-3.4-11.2-11.2-18-13.5-20.8c0,0,0.6-7.5-8-7.5
				c-8.6,0-12.4,6.8-12.4,6.8s-14.3,21.9-18,53.6C-111,20.9-111.4,23.4-109.3,27.6"/>
			<path id="Fill_247" class="st1" d="M-85.7,17.7c-0.7-2.2-1.3-4.5-1.8-6.7c-0.5-2.3-1-4.6-1.4-6.8c-0.4-2.3-0.8-4.6-1-6.9
				c-0.2-2.3-0.4-4.7-0.3-7c0.1,2.3,0.4,4.6,0.7,6.9c0.3,2.3,0.7,4.6,1.1,6.9c0.4,2.3,0.9,4.6,1.3,6.8
				C-86.6,13.2-86.2,15.5-85.7,17.7"/>
			<path id="Fill_249" class="st2" d="M-73.8,81c0.3,0,0.6,2.5,1.1,3.9c0.4,1.4-0.4,2.2-1.2,2.7c-0.8,0.5-5.6,4.3-7.1,5.1
				c-1.5,0.8-6,1.4-7.7,1.5c-1.7,0.1-2.6-1.1-2.6-1.3c0-0.2,0.7-1.4,1-1.6c0.3-0.2,3.3-1.5,3.3-1.5c2.4,2.3,7.1,1.3,7.1,1.3
				c1.9-2.1,4.6-4,4.6-4C-75.1,85-73.8,81-73.8,81"/>
			<path id="Fill_251" class="st2" d="M-80.7,74.4c-3.8,5.5-3.8,7.6-4.3,8.3c-0.6,0.7-4.5,1.2-6.5,1.5c-2,0.2-3.6,0-3.6,0
				c0.3-2.9,3.4-3.1,3.4-3.1c1.5,0.4,5.7,0.3,5.7,0.3c1-3.4,5.6-8.1,5.6-8.1L-80.7,74.4z"/>
			<path id="Fill_253" class="st3" d="M-72.3-35.6c-7.1-14.9-22-1.1-22-1.1l1,4.6c-13.2,20.3-15.4,39.7-15.4,39.7
				c9.8,6.1,17.1,5.2,25,5.3c7.9,0.2,26.6-1.4,26.6-1.4s-1.3,0.5-0.1-14.3c1.3-14.7-14.1-28.8-14.1-28.8L-72.3-35.6"/>
			<path id="Fill_255" class="st4" d="M-71.1-30.5c-1.7,0.9-3.5,1.5-5.3,2c-1.8,0.5-3.8,0.7-5.7,0.8c-1.9,0.1-3.8-0.2-5.7-0.7
				c-1.9-0.5-3.6-1.4-5.2-2.4c0.4,0.2,0.9,0.4,1.3,0.6l0.6,0.3l0.7,0.2l1.3,0.5l1.4,0.3c1.8,0.4,3.7,0.6,5.5,0.5
				c1.9,0,3.7-0.2,5.6-0.6c0.9-0.2,1.8-0.4,2.7-0.6C-72.9-29.9-72-30.2-71.1-30.5"/>
		</g>
	</g>
	<g id="Female_Character_x2F_Upper_Body" transform="translate(86 76) scale(1 1)">
		<g id="Female_Character_x2F_Upper_Body_x2F_Sweater_6">
			<g id="Group_112">
				<path id="Fill_86" class="st0" d="M-69,15.4c0,0-1-2.5,0-6.5s1.9-7,1.9-7l1.3,7c0,0,16.6,3.1,21.5-1.6l0.4-5.3l3.9-7.6L-40.8,11
					c0,0-8.2,3.7-13.2,7.1c0,0-0.1,0.4-2.1-0.4c-2-0.8-4.7-2.6-5.5-2.5c-0.8,0.1-1.6,0.1-1.9-0.1C-63.7,15.1-66.8,15.1-69,15.4
					 M-72.8-15.3c-2.1,4.6-6.5,22.6-5.5,26.8c1,4.3,4.9,9.3,6.3,10.2c1.4,0.9,2.4-0.1,2.4-0.1s1.9,1.8,2.5,1.9
					c0.6,0.2,0.6-0.1,0.5-0.4c-0.2-0.3-2-2.7-1.7-2.9c0.3-0.2,0.4,0.3,0.4,0.3s2.1,3.4,2.8,3.1c0.7-0.3-0.6-2.7-0.6-2.7
					s1.8,2.6,2.2,2.5c0.4,0,0.3-0.8,0.3-0.8c0.6,0.3,0.8,0,0.8,0c0.5-1-1-2.3-1-2.3s1.9,1.5,7,2.7c5.1,1.2,22.1-6.7,23.2-7.5
					c1.1-0.8,4.2-19.4,2.5-29C-32.4-22.9-45.3-29-48.1-31c-2.8-2-3.2-8.9-3.2-8.9s-1.2-3.4-4.3-1.2c-3.1,2.2-1.9,10.2-1.9,10.2
					C-62.9-26.9-70.7-19.9-72.8-15.3"/>
				<path id="Fill_88" class="st5" d="M-63.7,16.5c-1.3,0.6-2.6,1.2-3.9,1.7c-0.7,0.3-1.3,0.5-2,0.8c-0.3,0.1-0.7,0.3-1,0.4
					c-0.2,0.1-0.3,0.2-0.4,0.2c-0.1,0.1-0.3,0.2-0.2,0.2c0-0.1,0,0,0.1,0c0,0,0.1,0.1,0.2,0.1c0.1,0.1,0.3,0.1,0.4,0.1
					c0.3,0.1,0.7,0.1,1,0c0.7-0.1,1.4-0.3,2-0.5c0.7-0.2,1.5-0.3,2.2-0.2c0.7,0.1,1.4,0.4,1.9,1c-1.1-0.9-2.7-0.9-4-0.4
					c-0.7,0.3-1.4,0.5-2.1,0.5c-0.4,0-0.7,0.1-1.1,0c-0.2,0-0.4-0.1-0.6-0.2c-0.1,0-0.2-0.1-0.3-0.2c-0.1-0.1-0.2-0.1-0.2-0.4
					c0-0.3,0.2-0.3,0.2-0.4c0.1-0.1,0.2-0.1,0.3-0.2c0.2-0.1,0.3-0.2,0.5-0.3c0.3-0.2,0.7-0.3,1-0.4l2-0.7
					C-66.4,17.4-65.1,16.9-63.7,16.5"/>
				<path id="Fill_90" class="st5" d="M-63.3,22.7c-0.3-0.5-0.6-1.1-0.9-1.6c-0.1-0.3-0.3-0.5-0.5-0.8c-0.2-0.2-0.3-0.5-0.6-0.7
					c0.3,0.1,0.6,0.3,0.8,0.5c0.2,0.2,0.4,0.5,0.5,0.8C-63.7,21.5-63.4,22.1-63.3,22.7"/>
				<path id="Fill_92" class="st5" d="M-65.7,20.9c-0.3-0.5-0.5-1-0.9-1.3c0.1,0,0.3,0,0.4,0.1c0.1,0.1,0.2,0.2,0.3,0.3
					C-65.8,20.4-65.7,20.7-65.7,20.9"/>
				<path id="Fill_94" class="st5" d="M-62.9,15.5c-0.9-0.1-1.7,0.1-2.5,0.4c-0.8,0.3-1.6,0.6-2.4,1c-0.8,0.4-1.5,0.8-2.3,1.2
					c-0.4,0.2-0.8,0.4-1.2,0.6c-0.2,0.1-0.2,0.2-0.1,0.4c0.1,0.1,0.4,0.2,0.6,0.3c-0.2,0-0.4,0-0.7-0.2c-0.1-0.1-0.2-0.2-0.2-0.3
					c0-0.2,0.1-0.3,0.2-0.3c0.4-0.2,0.7-0.5,1.1-0.7c0.7-0.5,1.5-0.9,2.3-1.3c0.8-0.4,1.6-0.7,2.5-0.9
					C-64.7,15.3-63.7,15.2-62.9,15.5"/>
				<path id="Fill_96" class="st5" d="M-67.7,15.4c-0.7,0.2-1.5,0.4-2.2,0.7c-0.3,0.1-0.8,0.3-1,0.5c-0.1,0.3-0.3,0.7-0.3,1.1
					c-0.1-0.4,0-0.8,0.1-1.2c0.3-0.4,0.7-0.5,1-0.7C-69.3,15.6-68.5,15.4-67.7,15.4"/>
				<path id="Fill_98" class="st5" d="M-71.2,17c-0.4,0.6-0.8,1-1.3,1.5c-0.5,0.5-0.9,1-1.4,1.4c0.4-0.6,0.8-1.1,1.3-1.5
					C-72.2,17.9-71.7,17.4-71.2,17"/>
				<path id="Fill_100" class="st6" d="M-44.3-28.7c9.4,4.1,13,9.4,14.6,18.6c1.6,9.2-2,23.9-2.8,25.5c-0.8,1.6-1.3,0.6-1.3,0.6
					c-1.6-2.2-7.3-4.9-7.3-4.9s0.6-14.2,0.4-14.2c-0.2,0-2.5,4.5-2.7,5.1c-0.2,0.6-0.3,5.2-0.3,5.2c-7.1,6-22.4,1.6-22.4,1.6l-1-6
					c0,0-0.6,1.1-0.9,3.4c-0.3,2.3-1.2,3.7-1.2,3.7c-4.4-7.6-9.2-0.6-9.2-0.6c1.6-33.4,16.2-36.6,16.2-36.6
					C-54.1-23-44.3-28.7-44.3-28.7"/>
				<path id="Fill_102" class="st7" d="M-51.7-9.2c-1.9,0-4-0.1-6.3-0.3c-10.2-1.1-12.6-2-12.7-2c-0.1,0-2.4-0.5-3.7-1.5
					c-0.1-0.1-0.1-0.2,0-0.4c0.1-0.1,0.2-0.1,0.4,0c1.1,0.9,3.5,1.4,3.5,1.5c0,0,2.5,0.9,12.6,2c10.2,1,16.8-0.8,16.9-0.8
					c0,0,0.1,0,0.1,0c7.6,0.9,10.5-2,10.5-2.1c0.1-0.1,0.3-0.1,0.4,0c0.1,0.1,0.1,0.3,0,0.4c-0.1,0.1-3,3.1-10.9,2.2
					C-41.5-10.2-45.5-9.2-51.7-9.2"/>
				<path id="Fill_104" class="st7" d="M-52.5-6.9c-2,0-4.1-0.1-6.4-0.2c-9.4-0.6-11.6-1.1-12-1.2c-0.5,0.1-3.1,0.4-4.7-1.3
					c-0.1-0.1-0.1-0.3,0-0.4c0.1-0.1,0.3-0.1,0.4,0c1.6,1.7,4.3,1.2,4.3,1.2c0,0,0.1,0,0.1,0c0.1,0,1.7,0.6,12,1.2
					C-48.5-6.9-41.1-8.1-41-8.1c0,0,0,0,0.1,0c6.8,0.8,11-2.1,11-2.1c0.1-0.1,0.3-0.1,0.3,0.1c0.1,0.1,0.1,0.3-0.1,0.3
					c-0.2,0.1-4.3,3.1-11.3,2.2C-41.4-7.6-45.8-6.9-52.5-6.9"/>
				<path id="Fill_106" class="st7" d="M-55.2-3.6c-4.9,0-10.4-0.4-15.1-1.7c-0.6,0.2-3.9,1.1-6.2-1.3c-0.1-0.1-0.1-0.3,0-0.4
					c0.1-0.1,0.3-0.1,0.4,0c2.3,2.4,5.7,1.2,5.7,1.2c0,0,0.1,0,0.1,0c12,3.3,29.1,0.7,29.3,0.7c0,0,0,0,0.1,0
					c8.9,1.2,11.4-1.2,11.4-1.2c0.1-0.1,0.3-0.1,0.4,0c0.1,0.1,0.1,0.3,0,0.4c-0.1,0.1-2.6,2.6-11.8,1.4
					C-41.5-4.5-47.7-3.6-55.2-3.6"/>
				<path id="Fill_108" class="st8" d="M-41.3-6.8c-0.2-1.2-0.3-2.5-0.5-3.7c-0.2-1.2-0.4-2.4-0.8-3.6c-0.3-1.2-0.7-2.4-1.3-3.5
					c0.8,1,1.4,2.1,1.8,3.3c0.4,1.2,0.7,2.4,0.9,3.7c0.4,2.5,0.5,5,0.3,7.5L-41.3-6.8z"/>
				<path id="Fill_110" class="st8" d="M-67.1-19.4c-0.6,1.8-1.3,3.6-2.2,5.3c-0.8,1.7-1.3,3.5-1.2,5.3c0,1.9,0.7,3.6,1.4,5.4
					c0.7,1.8,1.4,3.6,2,5.4c-0.9-1.7-1.7-3.4-2.6-5.1c-0.4-0.9-0.8-1.7-1.1-2.7c-0.3-0.9-0.5-1.9-0.5-2.9c-0.1-2,0.5-4,1.5-5.6
					C-68.9-16-68-17.7-67.1-19.4"/>
			</g>
		</g>
	</g>
	<g id="Female_Character_x2F_Head" transform="translate(115 46) scale(1 1)">
		<g id="Female_Character_x2F_Head_x2F_Afro_Bun_1">
			<g id="Group_31">
				<g id="Group_3">
					<path id="Fill_1" class="st0" d="M-78.6-10.7c0,0,1.6-0.5,3.2-2.8c1.5-2.3-0.3-4.5-0.3-4.5c1.6-7.5-4.2-14.3-10.6-14.3
						c-6.4,0-10.1,6.1-10.7,9c-0.6,2.9,0,8.8,1,12.4c1,3.5,5.1,6.7,6.7,7.2c1.6,0.5,4.7-1.8,7.2-3.3C-79.8-8.4-78.6-10.7-78.6-10.7"
						/>
				</g>
				<path id="Fill_4" class="st1" d="M-82.5-15.4c0.4-0.2-0.8-1.6-2.4-1.4c-1.6,0.2-1.8,1.8-1.8,1.9s0.4-0.1,0.4-0.1
					c-0.1,0.4,0.2,0.3,0.2,0.3C-85.3-15.3-82.5-15.4-82.5-15.4"/>
				<path id="Fill_6" class="st1" d="M-95-15.8c-1.1-0.3-0.7-1.6,0.9-1.4c1.6,0.2,2.3,1.7,2.3,1.8c0,0.2-0.4-0.1-0.4-0.1
					c0.1,0.4-0.2,0.3-0.2,0.3C-93.2-15.8-95-15.8-95-15.8"/>
				<path id="Fill_8" class="st1" d="M-90.2-10.5c0,0-1.2-0.4-1.6-0.7c-0.5-0.3-0.6-0.2-0.3,0.2s1.7,1,1.9,0.8
					C-90-10.3-90.2-10.5-90.2-10.5"/>
				<path id="Fill_10" class="st9" d="M-87.4-9c0.5,0.2-0.4,1-1.2,1.3c-0.9,0.3-2-0.1-2.1-0.4c-0.1-0.2-0.1-0.2-0.5-0.5
					C-91.7-9-91.2-9-90-9c1.2,0,1.2-0.2,1.9-0.2C-87.3-9.2-87.4-9-87.4-9"/>
				<path id="Fill_12" class="st1" d="M-82-19.6C-81.9-19.5-81.9-19.6-82-19.6c-2.1-1.5-4.7-0.2-4.7,0.2c0,0.4,0.3,0.6,0.3,0.6
					c1.5-0.9,3.2-0.8,3.8-0.6C-82-19.4-82.2-19.6-82-19.6"/>
				<path id="Fill_14" class="st1" d="M-95-19.4c0,0.3,0.3,0.1,1.5,0.1c1.1,0,2.2,0.9,2.3,0.7c0-0.2,0.2-0.9-1.3-1.3
					C-94.1-20.4-95-19.4-95-19.4"/>
				<path id="Fill_16" class="st5" d="M-82.7-15.4c0.4-0.2-0.8-1.6-2.4-1.4c-1.6,0.2-1.8,1.8-1.8,1.9c0,0.2,0.4-0.1,0.4-0.1
					c-0.1,0.4,0.2,0.3,0.2,0.3C-85.5-15.3-82.7-15.4-82.7-15.4"/>
				<path id="Fill_18" class="st5" d="M-95.1-15.8c-1.1-0.3-0.7-1.6,0.9-1.4c1.6,0.2,2.3,1.7,2.3,1.8c0,0.2-0.4-0.1-0.4-0.1
					c0.1,0.4-0.2,0.3-0.2,0.3C-93.3-15.8-95.1-15.8-95.1-15.8"/>
				<path id="Fill_20" class="st5" d="M-90.4-10.5c0,0-1.2-0.4-1.6-0.7c-0.5-0.3-0.6-0.2-0.3,0.2s1.7,1,1.9,0.8
					C-90.2-10.3-90.4-10.5-90.4-10.5"/>
				<path id="Fill_22" class="st9" d="M-87.5-9c0.5,0.2-0.4,1-1.2,1.3c-0.9,0.3-2-0.1-2.1-0.4c-0.1-0.2-0.1-0.2-0.5-0.5
					C-91.9-9-91.4-9-90.2-9c1.2,0,1.2-0.2,1.9-0.2C-87.5-9.2-87.5-9-87.5-9"/>
				<path id="Fill_24" class="st5" d="M-82.2-19.6C-82.1-19.5-82-19.6-82.2-19.6c-2.1-1.5-4.7-0.2-4.7,0.2c0,0.4,0.3,0.6,0.3,0.6
					c1.5-0.9,3.2-0.8,3.8-0.6C-82.2-19.4-82.4-19.6-82.2-19.6"/>
				<path id="Fill_26" class="st5" d="M-95.1-19.4c0,0.3,0.3,0.1,1.5,0.1c1.1,0,2.2,0.9,2.3,0.7c0-0.2,0.2-0.9-1.3-1.3
					C-94.3-20.4-95.1-19.4-95.1-19.4"/>
				<g id="Group_30">
					<path id="Fill_28" class="st10" d="M-96.8-26.7c-1.3,1-1.7,1.8-1.7,3.5c0.1,2.4,1.2,2.9,1.2,2.9s0.5-5.8,5.7-6.7
						c4.7-0.8,6.9,1.2,8.3,2.4c4.2,3.6,3.3,9.6,3.6,9.6c0.4,0,1.1-1.6,1.8-2.3c0.6-0.7,2-1,2.6,0.4c1.2,2.7-1,4.6-1,4.6
						c0.8-0.7,1.5-1.3,2.1-2c0.4-0.5-0.2-2,0.1-2.4c0.5-0.6,1.2-0.2,1.6-1c0.5-1.1-0.6-2.2-0.2-3c1.9-4.2-1.1-5.8-2-6.2
						c-0.1,0-0.1-0.1,0-0.2c1.1-0.3,2.8-2.1,3-2.9c0.3-0.9,2.4-1.2,2.6-1.8c0.5-1.5-0.9-3.3-0.9-3.3c3-1.8,0.3-5.2-1.3-5.3
						c-1.9-0.1-3.1,1-3.4,0.4c-1.3-3.2-5.8-5.6-8.4-0.9c-0.3,0.5-2.6,0.9-2.8,2c-0.3,1.2-1.6,2.7-1,3.6c0.2,0.3,1.2,0.5,1.2,0.9
						c0,0.4,0.1,0.8,0.1,1c0,0.2-0.2,0.4-0.4,0.2c-2.5-2.1-3.1-0.2-5.1,0.1c-1,0.2-3,0.2-3.6,0.8c-0.9,0.8,0,1.3-0.3,1.6
						c-0.6,0.6-2.4,1-2.8,2C-98-27.4-96.3-27.1-96.8-26.7"/>
				</g>
			</g>
			<path id="Fill_28_00000042005428451965719330000013955110923099228066_" class="st5" d="M-76.9-15.1c-0.2,0.1-0.9,1.3-0.8,2
				c0,0.6,0.2,1-0.3,0.9c-0.5,0-0.6-1.3-0.2-2.2c0.5-0.9,0.8-1.6,1.5-1.2c0.7,0.4,0.2,1.1,0.1,1.2c-0.1,0-0.2-0.1-0.2-0.5
				C-76.7-15.3-76.9-15.1-76.9-15.1"/>
		</g>
	</g>
	<g id="Female_Character_x2F_Accesories" transform="translate(127 54) scale(34 36)">
		<g id="Female_Character_x2F_Accesories_x2F_None">
		</g>
	</g>
</g>
</svg>
