<?xml version="1.0" encoding="UTF-8"?>
<svg width="204px" height="204px" viewBox="0 0 204 204" version="1.1" xmlns="http://www.w3.org/2000/svg" xmlns:xlink="http://www.w3.org/1999/xlink">
    <title>Group 2</title>
    <defs>
        <circle id="path-1" cx="92" cy="92" r="92"></circle>
        <filter x="-8.2%" y="-8.2%" width="116.3%" height="116.3%" filterUnits="objectBoundingBox" id="filter-2">
            <feOffset dx="0" dy="0" in="SourceAlpha" result="shadowOffsetOuter1"></feOffset>
            <feGaussianBlur stdDeviation="5" in="shadowOffsetOuter1" result="shadowBlurOuter1"></feGaussianBlur>
            <feColorMatrix values="0 0 0 0 0   0 0 0 0 0   0 0 0 0 0  0 0 0 0.1 0" type="matrix" in="shadowBlurOuter1"></feColorMatrix>
        </filter>
        <polygon id="path-3" points="0 0 76 0 76 122 0 122"></polygon>
    </defs>
    <g id="2-Buttons" stroke="none" stroke-width="1" fill="none" fill-rule="evenodd">
        <g id="Group-2" transform="translate(10.000000, 10.000000)">
            <g id="Oval">
                <use fill="black" fill-opacity="1" filter="url(#filter-2)" xlink:href="#path-1"></use>
                <use fill="#FFFFFF" fill-rule="evenodd" xlink:href="#path-1"></use>
            </g>
            <g id="Group-8" transform="translate(54.000000, 31.000000)">
                <g id="Group-3">
                    <mask id="mask-4" fill="white">
                        <use xlink:href="#path-3"></use>
                    </mask>
                    <g id="Clip-2"></g>
                    <path d="M9.46199416,4.73457755 C6.85396625,4.73457755 4.73004036,6.85793832 4.73004036,9.46953803 L4.73004036,112.531994 C4.73004036,115.143593 6.85396625,117.266954 9.46199416,117.266954 L66.5381972,117.266954 C69.1481385,117.266954 71.270151,115.143593 71.270151,112.531994 L71.270151,9.46953803 C71.270151,6.85793832 69.1481385,4.73457755 66.5381972,4.73457755 L9.46199416,4.73457755 Z M66.5381972,122 L9.46199416,122 C4.24402488,122 0,117.753278 0,112.531994 L0,9.46953803 C0,4.24825326 4.24402488,-0.00038293251 9.46199416,-0.00038293251 L66.5381972,-0.00038293251 C71.7561665,-0.00038293251 76.0001913,4.24825326 76.0001913,9.46953803 L76.0001913,112.531994 C76.0001913,117.753278 71.7561665,122 66.5381972,122 L66.5381972,122 Z" id="Fill-1" fill="#1D1D1B" mask="url(#mask-4)"></path>
                </g>
                <path d="M43,110.5 C43,112.985397 40.9853967,115 38.5,115 C36.0146033,115 34,112.985397 34,110.5 C34,108.014603 36.0146033,106 38.5,106 C40.9853967,106 43,108.014603 43,110.5" id="Fill-4" fill="#1D1D1B"></path>
                <path d="M46.5831482,14 L29.4168518,14 C28.0832815,14 27,12.879903 27,11.5010109 C27,10.120097 28.0832815,9 29.4168518,9 L46.5831482,9 C47.9186739,9 49,10.120097 49,11.5010109 C49,12.879903 47.9186739,14 46.5831482,14" id="Fill-6" fill="#1D1D1B"></path>
            </g>
        </g>
    </g>
</svg>